<svg width="16" height="16" viewBox="0 0 16 16" fill="none" xmlns="http://www.w3.org/2000/svg">
<path fill-rule="evenodd" clip-rule="evenodd" d="M7.09266 4.64064L10.3853 7.90267C10.3853 7.95221 10.3853 8.00058 10.3853 8.04856L7.09266 11.3352C7.04421 11.3835 6.99616 11.3835 6.94772 11.3352L6.22147 10.6349L8.81124 8.04856C8.81124 8.00058 8.81124 7.95221 8.81124 7.90267L6.22147 5.36585L6.94772 4.64064C6.99616 4.59188 7.04421 4.59188 7.09266 4.64064ZM7.98808 5.71747e-07C10.2387 5.71747e-07 12.2238 0.870311 13.7017 2.3445C15.1288 3.79451 16 5.8008 16 8.00058C16 10.1996 15.1288 12.2059 13.7017 13.6317C12.2238 15.0813 10.2387 16 7.98808 16C5.78585 16 3.77625 15.0813 2.34873 13.6317C0.895427 12.2059 0 10.1996 0 8.00058C0 5.8008 0.895427 3.79451 2.34873 2.3445C3.77625 0.870311 5.78585 5.71747e-07 7.98808 5.71747e-07Z" fill="#D7FE64"/>
</svg>
