<svg width="35" height="36" viewBox="0 0 35 36" fill="none" xmlns="http://www.w3.org/2000/svg">
<path fill-rule="evenodd" clip-rule="evenodd" d="M35 18.3151C35 27.9801 27.1652 35.8151 17.5 35.8151C7.83482 35.8151 0 27.9801 0 18.3151C0 8.64994 7.83482 0.815125 17.5 0.815125C27.1652 0.815125 35 8.64994 35 18.3151Z" fill="#999999"/>
<path d="M13.9656 28.3938C22.5134 28.3938 27.1878 21.3127 27.1878 15.1724C27.1878 14.9712 27.1826 14.7708 27.1749 14.5717C28.0823 13.9158 28.8704 13.0973 29.4926 12.1657C28.6604 12.5354 27.7634 12.7849 26.8249 12.8971C27.7841 12.3221 28.5204 11.4116 28.8678 10.3266C27.9682 10.8591 26.9752 11.2462 25.9175 11.4546C25.0671 10.5513 23.8615 9.98642 22.5237 9.98642C19.9571 9.98642 17.8778 12.0675 17.8778 14.6329C17.8778 14.9976 17.9167 15.3523 17.9971 15.6925C14.1341 15.4983 10.7119 13.6492 8.42004 10.8376C8.02078 11.5238 7.79005 12.3221 7.79005 13.173C7.79005 14.7853 8.6093 16.2084 9.85893 17.0411C9.09671 17.0175 8.37855 16.808 7.75374 16.4596C7.75115 16.479 7.75116 16.4985 7.75116 16.519C7.75116 18.7696 9.35337 20.6485 11.4793 21.0747C11.0904 21.1807 10.6782 21.238 10.2556 21.238C9.95485 21.238 9.66448 21.2085 9.38188 21.1543C9.97299 23.0005 11.6893 24.3439 13.7219 24.3818C12.1326 25.6281 10.1286 26.3708 7.95079 26.3708C7.57746 26.3708 7.20671 26.3496 6.84375 26.3065C8.89968 27.6244 11.3419 28.3938 13.9656 28.3938Z" fill="white"/>
</svg>
