<svg width="35" height="36" viewBox="0 0 35 36" fill="none" xmlns="http://www.w3.org/2000/svg">
<path d="M35 18.3151C35 27.98 27.1649 35.8151 17.5 35.8151C7.83508 35.8151 0 27.98 0 18.3151C0 8.65019 7.83508 0.815121 17.5 0.815121C27.1649 0.815121 35 8.65019 35 18.3151Z" fill="#999999"/>
<path d="M18.854 15.9276C19.1413 15.6048 19.3782 15.2768 19.6735 14.9986C20.5809 14.1434 21.6545 13.7117 22.9078 13.7223C23.5966 13.728 24.2777 13.7778 24.9417 13.9699C26.4607 14.4091 27.3434 15.4547 27.7642 16.9384C28.08 18.0512 28.1381 19.1937 28.1401 20.3396C28.1443 22.7572 28.1332 25.1746 28.1383 27.5922C28.1389 27.8185 28.0756 27.8779 27.8526 27.8758C26.6074 27.8657 25.3617 27.8654 24.1165 27.8763C23.8974 27.8781 23.8499 27.8102 23.8507 27.6033C23.8577 25.3029 23.8593 23.0028 23.852 20.7024C23.8499 20.126 23.8134 19.5499 23.6516 18.9894C23.3537 17.957 22.6148 17.431 21.5332 17.4881C20.0562 17.5661 19.2883 18.2975 19.1 19.7991C19.0549 20.1579 19.0337 20.5167 19.0339 20.8781C19.036 23.1153 19.0316 25.3524 19.0399 27.5893C19.0407 27.8125 18.9849 27.8784 18.757 27.8763C17.5027 27.8652 16.2479 27.8665 14.9936 27.8753C14.7927 27.8768 14.7344 27.8226 14.7346 27.6191C14.7403 23.1902 14.7403 18.761 14.7344 14.3318C14.7341 14.1128 14.8059 14.0619 15.0131 14.0635C16.2044 14.0723 17.3959 14.0734 18.587 14.0627C18.8063 14.0609 18.8628 14.1317 18.8579 14.3393C18.8457 14.8685 18.854 15.3982 18.854 15.9276Z" fill="#FEFEFE"/>
<path d="M12.0272 20.9894C12.0272 23.1804 12.0235 25.3716 12.0323 27.5629C12.0334 27.8063 11.9727 27.88 11.7207 27.8771C10.476 27.8634 9.23079 27.8667 7.98582 27.8753C7.78645 27.8768 7.7263 27.8268 7.72656 27.6207C7.73253 23.1842 7.73201 18.7478 7.7276 14.3114C7.72734 14.1278 7.77193 14.0625 7.9669 14.0635C9.22975 14.0718 10.4929 14.0741 11.7557 14.0622C11.9984 14.0596 12.0316 14.154 12.0311 14.3619C12.0251 16.5711 12.0272 18.7802 12.0272 20.9894Z" fill="#FEFEFE"/>
<path d="M12.3718 9.66727C12.3729 11.0429 11.2562 12.1637 9.88397 12.1642C8.52882 12.1647 7.40286 11.0429 7.39845 9.68853C7.39379 8.31938 8.51923 7.19186 9.8889 7.19316C11.2492 7.19445 12.3703 8.31161 12.3718 9.66727Z" fill="#FEFEFE"/>
</svg>
