<svg width="343" height="69" viewBox="0 0 343 69" fill="none" xmlns="http://www.w3.org/2000/svg">
<path d="M27.6094 39.3027C27.6094 38.8457 27.5391 38.4355 27.3984 38.0723C27.2695 37.6973 27.0234 37.3574 26.6602 37.0527C26.2969 36.7363 25.7871 36.4258 25.1309 36.1211C24.4746 35.8164 23.625 35.5 22.582 35.1719C21.4219 34.7969 20.3203 34.375 19.2773 33.9062C18.2461 33.4375 17.332 32.8926 16.5352 32.2715C15.75 31.6387 15.1289 30.9062 14.6719 30.0742C14.2266 29.2422 14.0039 28.2754 14.0039 27.1738C14.0039 26.1074 14.2383 25.1406 14.707 24.2734C15.1758 23.3945 15.832 22.6445 16.6758 22.0234C17.5195 21.3906 18.5156 20.9043 19.6641 20.5645C20.8242 20.2246 22.0957 20.0547 23.4785 20.0547C25.3652 20.0547 27.0117 20.3945 28.418 21.0742C29.8242 21.7539 30.9141 22.6855 31.6875 23.8691C32.4727 25.0527 32.8652 26.4062 32.8652 27.9297H27.627C27.627 27.1797 27.4688 26.5234 27.1523 25.9609C26.8477 25.3867 26.3789 24.9355 25.7461 24.6074C25.125 24.2793 24.3398 24.1152 23.3906 24.1152C22.4766 24.1152 21.7148 24.2559 21.1055 24.5371C20.4961 24.8066 20.0391 25.1758 19.7344 25.6445C19.4297 26.1016 19.2773 26.6172 19.2773 27.1914C19.2773 27.625 19.3828 28.0176 19.5938 28.3691C19.8164 28.7207 20.1445 29.0488 20.5781 29.3535C21.0117 29.6582 21.5449 29.9453 22.1777 30.2148C22.8105 30.4844 23.543 30.748 24.375 31.0059C25.7695 31.4277 26.9941 31.9023 28.0488 32.4297C29.1152 32.957 30.0059 33.5488 30.7207 34.2051C31.4355 34.8613 31.9746 35.6055 32.3379 36.4375C32.7012 37.2695 32.8828 38.2129 32.8828 39.2676C32.8828 40.3809 32.666 41.377 32.2324 42.2559C31.7988 43.1348 31.1719 43.8789 30.3516 44.4883C29.5312 45.0977 28.5527 45.5605 27.416 45.877C26.2793 46.1934 25.0078 46.3516 23.6016 46.3516C22.3359 46.3516 21.0879 46.1875 19.8574 45.8594C18.627 45.5195 17.5078 45.0098 16.5 44.3301C15.5039 43.6504 14.707 42.7832 14.1094 41.7285C13.5117 40.6738 13.2129 39.4258 13.2129 37.9844H18.5039C18.5039 38.7812 18.627 39.4551 18.873 40.0059C19.1191 40.5566 19.4648 41.002 19.9102 41.3418C20.3672 41.6816 20.9062 41.9277 21.5273 42.0801C22.1602 42.2324 22.8516 42.3086 23.6016 42.3086C24.5156 42.3086 25.2656 42.1797 25.8516 41.9219C26.4492 41.6641 26.8887 41.3066 27.1699 40.8496C27.4629 40.3926 27.6094 39.877 27.6094 39.3027ZM41.0918 19V46H36.0293V19H41.0918ZM40.3711 35.8223H38.9824C38.9941 34.498 39.1699 33.2793 39.5098 32.166C39.8496 31.041 40.3359 30.0684 40.9688 29.248C41.6016 28.416 42.3574 27.7715 43.2363 27.3145C44.127 26.8574 45.1113 26.6289 46.1895 26.6289C47.127 26.6289 47.9766 26.7637 48.7383 27.0332C49.5117 27.291 50.1738 27.7129 50.7246 28.2988C51.2871 28.873 51.7207 29.6289 52.0254 30.5664C52.3301 31.5039 52.4824 32.6406 52.4824 33.9766V46H47.3848V33.9414C47.3848 33.0977 47.2617 32.4355 47.0156 31.9551C46.7812 31.4629 46.4355 31.1172 45.9785 30.918C45.5332 30.707 44.9824 30.6016 44.3262 30.6016C43.5996 30.6016 42.9785 30.7363 42.4629 31.0059C41.959 31.2754 41.5547 31.6504 41.25 32.1309C40.9453 32.5996 40.7227 33.1504 40.582 33.7832C40.4414 34.416 40.3711 35.0957 40.3711 35.8223ZM65.0859 46.3516C63.6094 46.3516 62.2852 46.1172 61.1133 45.6484C59.9414 45.168 58.9453 44.5059 58.125 43.6621C57.3164 42.8184 56.6953 41.8398 56.2617 40.7266C55.8281 39.6016 55.6113 38.4062 55.6113 37.1406V36.4375C55.6113 34.9961 55.8164 33.6777 56.2266 32.4824C56.6367 31.2871 57.2227 30.25 57.9844 29.3711C58.7578 28.4922 59.6953 27.8184 60.7969 27.3496C61.8984 26.8691 63.1406 26.6289 64.5234 26.6289C65.8711 26.6289 67.0664 26.8516 68.1094 27.2969C69.1523 27.7422 70.0254 28.375 70.7285 29.1953C71.4434 30.0156 71.9824 31 72.3457 32.1484C72.709 33.2852 72.8906 34.5508 72.8906 35.9453V38.0547H57.7734V34.6797H67.916V34.293C67.916 33.5898 67.7871 32.9629 67.5293 32.4121C67.2832 31.8496 66.9082 31.4043 66.4043 31.0762C65.9004 30.748 65.2559 30.584 64.4707 30.584C63.8027 30.584 63.2285 30.7305 62.748 31.0234C62.2676 31.3164 61.875 31.7266 61.5703 32.2539C61.2773 32.7812 61.0547 33.4023 60.9023 34.1172C60.7617 34.8203 60.6914 35.5938 60.6914 36.4375V37.1406C60.6914 37.9023 60.7969 38.6055 61.0078 39.25C61.2305 39.8945 61.541 40.4512 61.9395 40.9199C62.3496 41.3887 62.8418 41.752 63.416 42.0098C64.002 42.2676 64.6641 42.3965 65.4023 42.3965C66.3164 42.3965 67.166 42.2207 67.9512 41.8691C68.748 41.5059 69.4336 40.9609 70.0078 40.2344L72.4688 42.9062C72.0703 43.4805 71.5254 44.0312 70.834 44.5586C70.1543 45.0859 69.334 45.5195 68.373 45.8594C67.4121 46.1875 66.3164 46.3516 65.0859 46.3516ZM81.1172 19V46H76.0371V19H81.1172ZM85.3008 19H90.3633V41.6406L89.8535 46H85.3008V19ZM102.404 36.2969V36.666C102.404 38.084 102.252 39.3848 101.947 40.5684C101.654 41.752 101.197 42.7773 100.576 43.6445C99.9551 44.5 99.1816 45.168 98.2559 45.6484C97.3418 46.1172 96.2637 46.3516 95.0215 46.3516C93.8613 46.3516 92.8535 46.1172 91.998 45.6484C91.1543 45.1797 90.4453 44.5176 89.8711 43.6621C89.2969 42.8066 88.834 41.8047 88.4824 40.6562C88.1309 39.5078 87.8672 38.2539 87.6914 36.8945V36.0859C87.8672 34.7266 88.1309 33.4727 88.4824 32.3242C88.834 31.1758 89.2969 30.1738 89.8711 29.3184C90.4453 28.4629 91.1543 27.8008 91.998 27.332C92.8418 26.8633 93.8379 26.6289 94.9863 26.6289C96.2402 26.6289 97.3301 26.8691 98.2559 27.3496C99.1934 27.8184 99.9668 28.4863 100.576 29.3535C101.197 30.209 101.654 31.2285 101.947 32.4121C102.252 33.584 102.404 34.8789 102.404 36.2969ZM97.3418 36.666V36.2969C97.3418 35.5234 97.2832 34.7969 97.166 34.1172C97.0605 33.4258 96.873 32.8223 96.6035 32.3066C96.334 31.7793 95.9648 31.3633 95.4961 31.0586C95.0391 30.7539 94.4473 30.6016 93.7207 30.6016C93.0293 30.6016 92.4434 30.7188 91.9629 30.9531C91.4824 31.1875 91.084 31.5156 90.7676 31.9375C90.4629 32.3594 90.2344 32.8633 90.082 33.4492C89.9297 34.0234 89.8359 34.6562 89.8008 35.3477V37.6504C89.8359 38.5762 89.9883 39.3965 90.2578 40.1113C90.5391 40.8145 90.9609 41.3711 91.5234 41.7812C92.0977 42.1797 92.8418 42.3789 93.7559 42.3789C94.4707 42.3789 95.0625 42.2383 95.5312 41.957C96 41.6758 96.3633 41.2773 96.6211 40.7617C96.8906 40.2461 97.0781 39.6426 97.1836 38.9512C97.2891 38.248 97.3418 37.4863 97.3418 36.666ZM110.982 43.8555L116.027 26.9805H121.459L113.812 48.8652C113.648 49.3457 113.426 49.8613 113.145 50.4121C112.875 50.9629 112.506 51.4844 112.037 51.9766C111.58 52.4805 111 52.8906 110.297 53.207C109.605 53.5234 108.756 53.6816 107.748 53.6816C107.268 53.6816 106.875 53.6523 106.57 53.5938C106.266 53.5352 105.902 53.4531 105.48 53.3477V49.6387C105.609 49.6387 105.744 49.6387 105.885 49.6387C106.025 49.6504 106.16 49.6562 106.289 49.6562C106.957 49.6562 107.502 49.5801 107.924 49.4277C108.346 49.2754 108.686 49.041 108.943 48.7246C109.201 48.4199 109.406 48.0215 109.559 47.5293L110.982 43.8555ZM108.873 26.9805L113.004 40.7617L113.725 46.123L110.279 46.4922L103.441 26.9805H108.873ZM146.086 39.3027C146.086 38.8457 146.016 38.4355 145.875 38.0723C145.746 37.6973 145.5 37.3574 145.137 37.0527C144.773 36.7363 144.264 36.4258 143.607 36.1211C142.951 35.8164 142.102 35.5 141.059 35.1719C139.898 34.7969 138.797 34.375 137.754 33.9062C136.723 33.4375 135.809 32.8926 135.012 32.2715C134.227 31.6387 133.605 30.9062 133.148 30.0742C132.703 29.2422 132.48 28.2754 132.48 27.1738C132.48 26.1074 132.715 25.1406 133.184 24.2734C133.652 23.3945 134.309 22.6445 135.152 22.0234C135.996 21.3906 136.992 20.9043 138.141 20.5645C139.301 20.2246 140.572 20.0547 141.955 20.0547C143.842 20.0547 145.488 20.3945 146.895 21.0742C148.301 21.7539 149.391 22.6855 150.164 23.8691C150.949 25.0527 151.342 26.4062 151.342 27.9297H146.104C146.104 27.1797 145.945 26.5234 145.629 25.9609C145.324 25.3867 144.855 24.9355 144.223 24.6074C143.602 24.2793 142.816 24.1152 141.867 24.1152C140.953 24.1152 140.191 24.2559 139.582 24.5371C138.973 24.8066 138.516 25.1758 138.211 25.6445C137.906 26.1016 137.754 26.6172 137.754 27.1914C137.754 27.625 137.859 28.0176 138.07 28.3691C138.293 28.7207 138.621 29.0488 139.055 29.3535C139.488 29.6582 140.021 29.9453 140.654 30.2148C141.287 30.4844 142.02 30.748 142.852 31.0059C144.246 31.4277 145.471 31.9023 146.525 32.4297C147.592 32.957 148.482 33.5488 149.197 34.2051C149.912 34.8613 150.451 35.6055 150.814 36.4375C151.178 37.2695 151.359 38.2129 151.359 39.2676C151.359 40.3809 151.143 41.377 150.709 42.2559C150.275 43.1348 149.648 43.8789 148.828 44.4883C148.008 45.0977 147.029 45.5605 145.893 45.877C144.756 46.1934 143.484 46.3516 142.078 46.3516C140.812 46.3516 139.564 46.1875 138.334 45.8594C137.104 45.5195 135.984 45.0098 134.977 44.3301C133.98 43.6504 133.184 42.7832 132.586 41.7285C131.988 40.6738 131.689 39.4258 131.689 37.9844H136.98C136.98 38.7812 137.104 39.4551 137.35 40.0059C137.596 40.5566 137.941 41.002 138.387 41.3418C138.844 41.6816 139.383 41.9277 140.004 42.0801C140.637 42.2324 141.328 42.3086 142.078 42.3086C142.992 42.3086 143.742 42.1797 144.328 41.9219C144.926 41.6641 145.365 41.3066 145.646 40.8496C145.939 40.3926 146.086 39.877 146.086 39.3027ZM163.945 26.9805V30.5664H152.871V26.9805H163.945ZM155.613 22.2871H160.676V40.2695C160.676 40.8203 160.746 41.2422 160.887 41.5352C161.039 41.8281 161.262 42.0332 161.555 42.1504C161.848 42.2559 162.217 42.3086 162.662 42.3086C162.979 42.3086 163.26 42.2969 163.506 42.2734C163.764 42.2383 163.98 42.2031 164.156 42.168L164.174 45.8945C163.74 46.0352 163.271 46.1465 162.768 46.2285C162.264 46.3105 161.707 46.3516 161.098 46.3516C159.984 46.3516 159.012 46.1699 158.18 45.8066C157.359 45.4316 156.727 44.834 156.281 44.0137C155.836 43.1934 155.613 42.1152 155.613 40.7793V22.2871ZM165.562 36.6836V36.3145C165.562 34.9199 165.762 33.6367 166.16 32.4648C166.559 31.2812 167.139 30.2559 167.9 29.3887C168.662 28.5215 169.6 27.8477 170.713 27.3672C171.826 26.875 173.104 26.6289 174.545 26.6289C175.986 26.6289 177.27 26.875 178.395 27.3672C179.52 27.8477 180.463 28.5215 181.225 29.3887C181.998 30.2559 182.584 31.2812 182.982 32.4648C183.381 33.6367 183.58 34.9199 183.58 36.3145V36.6836C183.58 38.0664 183.381 39.3496 182.982 40.5332C182.584 41.7051 181.998 42.7305 181.225 43.6094C180.463 44.4766 179.525 45.1504 178.412 45.6309C177.299 46.1113 176.021 46.3516 174.58 46.3516C173.139 46.3516 171.855 46.1113 170.73 45.6309C169.617 45.1504 168.674 44.4766 167.9 43.6094C167.139 42.7305 166.559 41.7051 166.16 40.5332C165.762 39.3496 165.562 38.0664 165.562 36.6836ZM170.625 36.3145V36.6836C170.625 37.4805 170.695 38.2246 170.836 38.916C170.977 39.6074 171.199 40.2168 171.504 40.7441C171.82 41.2598 172.23 41.6641 172.734 41.957C173.238 42.25 173.854 42.3965 174.58 42.3965C175.283 42.3965 175.887 42.25 176.391 41.957C176.895 41.6641 177.299 41.2598 177.604 40.7441C177.908 40.2168 178.131 39.6074 178.271 38.916C178.424 38.2246 178.5 37.4805 178.5 36.6836V36.3145C178.5 35.541 178.424 34.8145 178.271 34.1348C178.131 33.4434 177.902 32.834 177.586 32.3066C177.281 31.7676 176.877 31.3457 176.373 31.041C175.869 30.7363 175.26 30.584 174.545 30.584C173.83 30.584 173.221 30.7363 172.717 31.041C172.225 31.3457 171.82 31.7676 171.504 32.3066C171.199 32.834 170.977 33.4434 170.836 34.1348C170.695 34.8145 170.625 35.541 170.625 36.3145ZM194.549 42.3965C195.17 42.3965 195.721 42.2793 196.201 42.0449C196.682 41.7988 197.057 41.459 197.326 41.0254C197.607 40.5801 197.754 40.0586 197.766 39.4609H202.529C202.518 40.7969 202.16 41.9863 201.457 43.0293C200.754 44.0605 199.811 44.875 198.627 45.4727C197.443 46.0586 196.119 46.3516 194.654 46.3516C193.178 46.3516 191.889 46.1055 190.787 45.6133C189.697 45.1211 188.789 44.4414 188.062 43.5742C187.336 42.6953 186.791 41.6758 186.428 40.5156C186.064 39.3438 185.883 38.0898 185.883 36.7539V36.2441C185.883 34.8965 186.064 33.6426 186.428 32.4824C186.791 31.3105 187.336 30.291 188.062 29.4238C188.789 28.5449 189.697 27.8594 190.787 27.3672C191.877 26.875 193.154 26.6289 194.619 26.6289C196.178 26.6289 197.543 26.9277 198.715 27.5254C199.898 28.123 200.824 28.9785 201.492 30.0918C202.172 31.1934 202.518 32.5 202.529 34.0117H197.766C197.754 33.3789 197.619 32.8047 197.361 32.2891C197.115 31.7734 196.752 31.3633 196.271 31.0586C195.803 30.7422 195.223 30.584 194.531 30.584C193.793 30.584 193.189 30.7422 192.721 31.0586C192.252 31.3633 191.889 31.7852 191.631 32.3242C191.373 32.8516 191.191 33.4551 191.086 34.1348C190.992 34.8027 190.945 35.5059 190.945 36.2441V36.7539C190.945 37.4922 190.992 38.2012 191.086 38.8809C191.18 39.5605 191.355 40.1641 191.613 40.6914C191.883 41.2188 192.252 41.6348 192.721 41.9395C193.189 42.2441 193.799 42.3965 194.549 42.3965ZM210.527 18.9824V46H205.465V18.9824H210.527ZM222.516 26.9805L214.254 36.4023L209.824 40.8848L207.979 37.2285L211.494 32.7637L216.434 26.9805H222.516ZM217.26 46L211.635 37.2109L215.133 34.1523L223.096 46H217.26ZM234.979 40.7441C234.979 40.3809 234.873 40.0527 234.662 39.7598C234.451 39.4668 234.059 39.1973 233.484 38.9512C232.922 38.6934 232.107 38.459 231.041 38.248C230.08 38.0371 229.184 37.7734 228.352 37.457C227.531 37.1289 226.816 36.7363 226.207 36.2793C225.609 35.8223 225.141 35.2832 224.801 34.6621C224.461 34.0293 224.291 33.3086 224.291 32.5C224.291 31.7031 224.461 30.9531 224.801 30.25C225.152 29.5469 225.65 28.9258 226.295 28.3867C226.951 27.8359 227.748 27.4082 228.686 27.1035C229.635 26.7871 230.701 26.6289 231.885 26.6289C233.537 26.6289 234.955 26.8926 236.139 27.4199C237.334 27.9473 238.248 28.6738 238.881 29.5996C239.525 30.5137 239.848 31.5566 239.848 32.7285H234.785C234.785 32.2363 234.68 31.7969 234.469 31.4102C234.27 31.0117 233.953 30.7012 233.52 30.4785C233.098 30.2441 232.547 30.127 231.867 30.127C231.305 30.127 230.818 30.2266 230.408 30.4258C229.998 30.6133 229.682 30.8711 229.459 31.1992C229.248 31.5156 229.143 31.8672 229.143 32.2539C229.143 32.5469 229.201 32.8105 229.318 33.0449C229.447 33.2676 229.652 33.4727 229.934 33.6602C230.215 33.8477 230.578 34.0234 231.023 34.1875C231.48 34.3398 232.043 34.4805 232.711 34.6094C234.082 34.8906 235.307 35.2598 236.385 35.7168C237.463 36.1621 238.318 36.7715 238.951 37.5449C239.584 38.3066 239.9 39.3086 239.9 40.5508C239.9 41.3945 239.713 42.168 239.338 42.8711C238.963 43.5742 238.424 44.1895 237.721 44.7168C237.018 45.2324 236.174 45.6367 235.189 45.9297C234.217 46.2109 233.121 46.3516 231.902 46.3516C230.133 46.3516 228.633 46.0352 227.402 45.4023C226.184 44.7695 225.258 43.9668 224.625 42.9941C224.004 42.0098 223.693 41.002 223.693 39.9707H228.492C228.516 40.6621 228.691 41.2188 229.02 41.6406C229.359 42.0625 229.787 42.3672 230.303 42.5547C230.83 42.7422 231.398 42.8359 232.008 42.8359C232.664 42.8359 233.209 42.748 233.643 42.5723C234.076 42.3848 234.404 42.1387 234.627 41.834C234.861 41.5176 234.979 41.1543 234.979 40.7441Z" fill="white"/>
<path d="M309.038 1H242L275.408 34.4076L242.223 67.5924H309.038L342 34.4076L309.038 1Z" fill="#D7FE64" stroke="black"/>
<path d="M242 67.8152L275.185 34.4076L308.37 67.8152H242Z" fill="#AFEB00" stroke="black"/>
</svg>
