<svg width="35" height="36" viewBox="0 0 35 36" fill="none" xmlns="http://www.w3.org/2000/svg">
<path d="M17.5 0.815125C7.83507 0.815125 0 8.65093 0 18.3157C0 27.978 7.83507 35.8151 17.5 35.8151C27.1649 35.8151 35 27.978 35 18.3157C35 8.65093 27.1649 0.815125 17.5 0.815125Z" fill="#999999"/>
<path d="M26.0205 11.2072C25.9537 11.0101 25.8738 10.9583 25.7491 10.909C25.4764 10.8079 25.0144 10.9609 25.0144 10.9609C25.0144 10.9609 8.65899 16.8406 7.72462 17.4914C7.52343 17.6314 7.45603 17.7143 7.42259 17.8102C7.26107 18.2717 7.76429 18.4765 7.76429 18.4765L11.9798 19.8505C11.9798 19.8505 12.137 19.8739 12.193 19.8376C13.152 19.2309 21.8415 13.7452 22.3427 13.5611C22.4218 13.5378 22.4804 13.5637 22.4648 13.6182C22.2641 14.3233 14.7168 21.0301 14.7168 21.0301C14.7168 21.0301 14.6881 21.0664 14.6699 21.1079L14.6601 21.1027L14.2668 25.2844C14.2668 25.2844 14.1019 26.5651 15.3829 25.2844C16.2867 24.3796 17.1611 23.6226 17.5988 23.2571C19.0483 24.2578 20.6082 25.3648 21.2815 25.9429C21.6196 26.2332 21.9025 26.2799 22.1353 26.2721C22.7744 26.2488 22.9527 25.5462 22.9527 25.5462C22.9527 25.5462 25.9332 13.5508 26.0327 11.9434C26.0426 11.7853 26.0561 11.6868 26.0571 11.5779C26.0589 11.4275 26.0449 11.2772 26.0205 11.2072Z" fill="white"/>
</svg>
