<svg width="35" height="36" viewBox="0 0 35 36" fill="none" xmlns="http://www.w3.org/2000/svg">
<path d="M35 18.3151C35 27.98 27.1649 35.8151 17.5 35.8151C7.83508 35.8151 0 27.98 0 18.3151C0 8.64993 7.83508 0.815121 17.5 0.815121C27.1649 0.815121 35 8.64993 35 18.3151Z" fill="#999999"/>
<path fill-rule="evenodd" clip-rule="evenodd" d="M23.1233 20.2787C22.8458 20.14 21.4821 19.4691 21.2278 19.3765C20.9735 19.2842 20.7886 19.2378 20.6035 19.5155C20.4189 19.7929 19.8872 20.4177 19.7254 20.6028C19.5636 20.7877 19.4018 20.811 19.1244 20.672C18.847 20.5333 17.9534 20.2406 16.8938 19.2956C16.0691 18.5606 15.5124 17.6524 15.3507 17.3748C15.1889 17.0971 15.3333 16.947 15.4723 16.8088C15.597 16.6846 15.7497 16.485 15.8884 16.323C16.0271 16.1612 16.0732 16.0453 16.1655 15.8604C16.2583 15.6753 16.2119 15.5133 16.1424 15.3746C16.0732 15.2356 15.5184 13.8709 15.2874 13.3155C15.0621 12.775 14.8337 12.8481 14.6631 12.8395C14.5016 12.8315 14.3165 12.8299 14.1316 12.8299C13.9468 12.8299 13.6463 12.8992 13.392 13.1768C13.1376 13.4545 12.421 14.1252 12.421 15.4902C12.421 16.855 13.415 18.1735 13.5537 18.3586C13.6924 18.5438 15.5096 21.3448 18.2922 22.546C18.9541 22.8317 19.4708 23.0022 19.8737 23.1301C20.5382 23.3411 21.143 23.3113 21.6208 23.24C22.1536 23.1604 23.262 22.569 23.4932 21.9211C23.7245 21.2735 23.7245 20.7184 23.655 20.6028C23.5855 20.4872 23.4007 20.4177 23.1233 20.2787ZM18.062 27.1872H18.0581C16.4025 27.1867 14.7787 26.7421 13.3619 25.9015L13.0249 25.7014L9.53263 26.6174L10.4649 23.2136L10.2453 22.8646C9.32186 21.3959 8.83393 19.6985 8.83471 17.9555C8.83678 12.8696 12.9761 8.73185 18.0656 8.73185C20.5301 8.73289 22.8471 9.6937 24.5891 11.437C26.3311 13.1807 27.2898 15.4982 27.2893 17.963C27.287 23.0494 23.1476 27.1872 18.062 27.1872ZM25.9149 10.1124C23.8191 8.01448 21.0316 6.85869 18.062 6.85739C11.9427 6.85739 6.9626 11.8357 6.96027 17.955C6.95949 19.9108 7.47074 21.82 8.44219 23.5031L6.86719 29.254L12.7521 27.7107C14.3738 28.595 16.1995 29.0609 18.0573 29.0616H18.062C18.0617 29.0616 18.0625 29.0616 18.062 29.0616C24.1803 29.0616 29.1609 24.0828 29.1635 17.9638C29.1645 14.9984 28.0111 12.2098 25.9149 10.1124Z" fill="white"/>
</svg>
